<svg width="200" height="200" viewBox="0 0 200 200" xmlns="http://www.w3.org/2000/svg">
  <rect width="200" height="200" fill="#FFFFFF" />
  <g transform="translate(100,100)">
    <line x1="0" y1="-70" x2="0" y2="-90" stroke="#FFA500" stroke-width="3"/>
    <line x1="25" y1="-65" x2="30" y2="-85" stroke="#FFA500" stroke-width="2"/>
    <line x1="50" y1="-50" x2="60" y2="-60" stroke="#FFA500" stroke-width="2"/>
    <line x1="65" y1="-25" x2="85" y2="-30" stroke="#FFA500" stroke-width="2"/>
    <line x1="70" y1="0" x2="90" y2="0" stroke="#FFA500" stroke-width="3"/>
    <line x1="65" y1="25" x2="85" y2="30" stroke="#FFA500" stroke-width="2"/>
    <line x1="50" y1="50" x2="60" y2="60" stroke="#FFA500" stroke-width="2"/>
    <line x1="25" y1="65" x2="30" y2="85" stroke="#FFA500" stroke-width="2"/>
    <line x1="0" y1="70" x2="0" y2="90" stroke="#FFA500" stroke-width="3"/>
    <line x1="-25" y1="65" x2="-30" y2="85" stroke="#FFA500" stroke-width="2"/>
    <line x1="-50" y1="50" x2="-60" y2="60" stroke="#FFA500" stroke-width="2"/>
    <line x1="-65" y1="25" x2="-85" y2="30" stroke="#FFA500" stroke-width="2"/>
    <line x1="-70" y1="0" x2="-90" y2="0" stroke="#FFA500" stroke-width="3"/>
    <line x1="-65" y1="-25" x2="-85" y2="-30" stroke="#FFA500" stroke-width="2"/>
    <line x1="-50" y1="-50" x2="-60" y2="-60" stroke="#FFA500" stroke-width="2"/>
    <line x1="-25" y1="-65" x2="-30" y2="-85" stroke="#FFA500" stroke-width="2"/>
  </g>
  <circle cx="100" cy="100" r="40" fill="#FFD700"/>
  <polygon points="100,60 120,70 120,95 100,105 80,95 80,70" fill="#002B5B"/>
  <polygon points="120,70 140,80 140,105 120,115 100,105 100,85" fill="#002B5B"/>
  <polygon points="100,105 120,115 120,140 100,150 80,140 80,115" fill="#002B5B"/>
  <polygon points="80,95 80,115 60,105 60,85 80,70 80,95" fill="#002B5B"/>
  <polygon points="100,85 100,105 80,115 80,95" fill="#002B5B"/>
  <text x="100" y="85" text-anchor="middle" fill="white" font-size="10" font-family="monospace">C</text>
  <text x="120" y="95" text-anchor="middle" fill="white" font-size="10" font-family="monospace">E</text>
  <text x="100" y="125" text-anchor="middle" fill="white" font-size="10" font-family="monospace">3</text>
  <text x="80" y="105" text-anchor="middle" fill="white" font-size="10" font-family="monospace">1</text>
  <text x="100" y="105" text-anchor="middle" fill="white" font-size="10" font-family="monospace">6</text>
  <text x="100" y="180" text-anchor="middle" fill="#000" font-size="16" font-family="sans-serif">206CE</text>
</svg>
